<?xml version="1.0" encoding="UTF-8"?>
<svg width="200" height="200" viewBox="0 0 200 200" xmlns="http://www.w3.org/2000/svg">
  <rect width="200" height="200" fill="#d4fbff"/>
  <path d="M100,30 L160,60 L160,110 C160,140 135,170 100,180 C65,170 40,140 40,110 L40,60 L100,30 Z" fill="#14142b"/>
  <path d="M100,50 L140,70 L140,105 C140,125 125,145 100,155 C75,145 60,125 60,105 L60,70 L100,50 Z" fill="#d4fbff"/>
  <circle cx="100" cy="100" r="20" fill="#14142b"/>
  <rect x="95" y="85" width="10" height="30" rx="2" fill="#d4fbff"/>
  <rect x="95" y="85" width="10" height="5" rx="2" fill="#d4fbff"/>
  <text x="100" y="130" font-family="Arial" font-size="12" fill="#14142b" text-anchor="middle">Security</text>
</svg>
